<mxfile host="app.diagrams.net" modified="2023-05-20T01:59:02.370Z" agent="Mozilla/5.0 (X11; Linux x86_64) AppleWebKit/537.36 (KHTML, like Gecko) Chrome/113.0.0.0 Safari/537.36" version="21.3.2" etag="reOOMyUbTRmsXcWRexRF" type="github">
  <diagram name="Page-1" id="Gh8qVHzcruYR-wcPv18W">
    <mxGraphModel>
      <root>
        <mxCell id="0" />
        <mxCell id="1" parent="0" />
      </root>
    </mxGraphModel>
  </diagram>
</mxfile>
